<?xml version="1.0" standalone="no"?>
<!DOCTYPE svg PUBLIC "-//W3C//DTD SVG 20010904//EN"
 "http://www.w3.org/TR/2001/REC-SVG-20010904/DTD/svg10.dtd">
<svg version="1.0" xmlns="http://www.w3.org/2000/svg"
 width="382.000000pt" height="382.000000pt" viewBox="0 0 382.000000 382.000000"
 preserveAspectRatio="xMidYMid meet">
<metadata>
Created by potrace 1.15, written by Peter Selinger 2001-2017
</metadata>
<g transform="translate(0.000000,382.000000) scale(0.100000,-0.100000)"
fill="#000000" stroke="none">
<path d="M1669 3805 c-731 -89 -1372 -627 -1586 -1330 -107 -354 -110 -757 -8
-1107 180 -617 691 -1124 1310 -1298 199 -56 269 -64 520 -65 241 0 296 6 480
52 337 84 658 272 905 530 284 297 459 655 514 1052 21 144 21 402 1 540 -139
948 -953 1648 -1907 1640 -68 -1 -171 -7 -229 -14z m-197 -367 c-174 -201
-297 -382 -413 -603 l-71 -135 -274 0 -273 0 30 53 c99 168 290 380 446 495
98 72 232 149 333 193 73 32 273 98 298 99 7 0 -27 -46 -76 -102z m958 56
c385 -127 708 -389 929 -756 l23 -38 -276 0 -275 0 -54 108 c-116 231 -258
438 -446 651 -74 83 -74 83 -40 76 19 -4 81 -22 139 -41z m-191 -308 c109
-134 311 -446 311 -481 0 -3 -117 -5 -260 -5 l-260 0 0 362 0 362 68 -74 c37
-40 100 -114 141 -164z m-449 -131 l0 -355 -260 0 c-143 0 -260 3 -260 7 0 31
191 325 300 462 72 91 207 241 216 241 2 0 4 -160 4 -355z m-911 -662 c-58
-202 -85 -462 -69 -665 8 -107 37 -286 56 -350 5 -17 -12 -18 -264 -18 l-269
0 -21 73 c-94 318 -93 627 3 965 l18 62 283 0 283 0 -20 -67z m911 -483 l0
-550 -333 0 -334 0 -26 108 c-38 152 -47 227 -47 392 0 142 12 244 44 385 15
65 53 190 63 208 2 4 146 7 319 7 l314 0 0 -550z m887 505 c46 -130 84 -316
98 -480 10 -127 -16 -352 -61 -514 l-17 -61 -334 0 -333 0 0 550 0 550 316 -2
317 -3 14 -40z m828 -12 c99 -313 100 -656 3 -975 l-20 -68 -270 0 c-253 0
-269 1 -264 18 19 57 47 213 57 312 20 199 -8 491 -65 690 l-24 80 282 0 282
0 19 -57z m-2507 -1375 c85 -186 251 -424 442 -636 115 -128 119 -124 -60 -65
-382 126 -709 399 -934 781 -6 9 47 12 251 12 l258 0 43 -92z m792 -275 l-1
-368 -119 123 c-115 117 -220 245 -300 362 -44 65 -140 231 -140 242 0 4 126
8 280 8 l280 0 0 -367z m764 285 c-105 -189 -231 -354 -406 -533 l-117 -120
-1 368 0 367 284 0 285 0 -45 -82z m800 35 c-87 -152 -236 -328 -374 -444
-161 -135 -348 -239 -541 -303 -177 -58 -174 -62 -53 71 195 216 346 434 439
636 l40 86 258 1 259 0 -28 -47z"/>
</g>
</svg>
