<?xml version="1.0" standalone="no"?>
<!DOCTYPE svg PUBLIC "-//W3C//DTD SVG 20010904//EN"
 "http://www.w3.org/TR/2001/REC-SVG-20010904/DTD/svg10.dtd">
<svg version="1.0" xmlns="http://www.w3.org/2000/svg"
 width="9231.000000pt" height="498.000000pt" viewBox="0 0 9231.000000 498.000000"
 preserveAspectRatio="xMidYMid meet">

<g transform="translate(0.000000,498.000000) scale(0.100000,-0.100000)"
fill="#000000" stroke="none">
<path d="M76078 3773 c-10 -2 -18 -8 -18 -13 0 -4 -12 -11 -27 -15 -16 -3 -41
-17 -58 -29 -16 -12 -50 -34 -75 -48 -25 -15 -57 -38 -72 -52 -15 -14 -31 -26
-36 -26 -17 0 -92 -62 -92 -76 0 -9 -4 -12 -10 -9 -5 3 -10 1 -10 -5 0 -13
-40 -49 -55 -50 -14 0 -115 -96 -115 -109 0 -6 -6 -11 -14 -11 -7 0 -21 -11
-30 -25 -9 -14 -21 -23 -26 -20 -6 4 -10 1 -10 -4 0 -6 -7 -11 -15 -11 -8 0
-15 -6 -15 -13 0 -7 -9 -17 -19 -22 -11 -6 -36 -19 -58 -29 -21 -11 -73 -46
-117 -79 -43 -32 -80 -56 -83 -54 -2 3 -18 -8 -36 -24 -17 -16 -36 -29 -42
-29 -6 0 -28 -16 -48 -35 -20 -19 -46 -35 -57 -35 -11 0 -20 -4 -20 -9 0 -5
-21 -21 -46 -35 -37 -21 -60 -26 -114 -26 -80 0 -132 9 -124 21 3 5 -1 9 -8 9
-25 0 -170 63 -175 76 -3 8 -14 14 -24 14 -11 0 -28 5 -38 12 -24 14 -132 -4
-198 -33 -23 -11 -55 -19 -70 -19 -16 0 -33 -4 -39 -10 -10 -10 -144 9 -144
22 0 4 -13 5 -29 2 -16 -4 -32 -1 -35 5 -10 16 -117 13 -140 -4 -11 -8 -31
-15 -45 -15 -14 0 -35 -7 -46 -16 -13 -10 -32 -13 -55 -9 -36 6 -180 -19 -190
-33 -5 -8 -126 -23 -346 -42 -93 -9 -123 -8 -175 5 -91 23 -140 26 -163 9 -11
-8 -28 -14 -38 -14 -10 0 -18 -4 -18 -9 0 -14 -87 -6 -140 13 -25 9 -52 16
-61 16 -9 0 -26 9 -39 20 -13 11 -28 20 -34 20 -6 0 -28 9 -49 20 -20 11 -44
20 -53 20 -9 0 -30 7 -47 16 -18 9 -39 20 -47 24 -18 8 -91 1 -106 -11 -6 -5
-32 -12 -58 -15 -38 -6 -46 -4 -46 10 0 13 -11 16 -62 16 -35 1 -83 5 -108 11
-25 5 -92 14 -150 19 -58 6 -118 12 -135 15 -16 2 -113 9 -215 14 -172 9 -191
12 -270 42 -47 17 -86 36 -88 40 -2 5 -14 9 -26 9 -12 0 -50 11 -84 25 -33 14
-86 28 -117 31 -39 5 -59 12 -65 25 -7 11 -27 20 -58 24 -26 4 -69 13 -96 21
-58 16 -122 18 -131 4 -3 -5 -17 -10 -31 -10 -14 0 -23 -4 -20 -9 8 -13 -49
-34 -73 -26 -12 3 -21 2 -21 -3 0 -5 -15 -13 -34 -16 -19 -4 -39 -13 -46 -21
-7 -8 -23 -15 -36 -15 -23 0 -104 -46 -104 -59 0 -26 -180 -56 -194 -32 -4 6
-16 11 -27 11 -30 0 -119 31 -119 41 0 5 -9 9 -19 9 -11 0 -23 5 -26 10 -3 6
-17 10 -30 10 -13 0 -27 5 -30 10 -3 6 -17 10 -31 10 -14 0 -23 4 -20 9 5 7
-25 17 -71 23 -7 1 -14 7 -17 14 -3 7 -22 16 -43 19 -36 6 -102 33 -113 46 -7
8 -60 20 -85 20 -11 -1 -81 6 -155 13 -74 8 -200 13 -280 12 -130 -2 -171 -6
-220 -23 -8 -2 -42 -6 -75 -9 -33 -2 -93 -12 -133 -22 -85 -22 -188 -28 -206
-13 -10 9 -12 6 -9 -12 4 -20 -3 -25 -64 -47 -37 -13 -72 -25 -78 -26 -41 -9
-119 -45 -117 -54 1 -6 -6 -10 -16 -8 -11 2 -19 -1 -20 -7 0 -12 -70 -43 -98
-44 -15 -1 -27 10 -38 34 -13 26 -23 35 -42 35 -13 0 -53 12 -87 27 -34 14
-80 29 -102 33 -42 8 -151 38 -445 122 -136 40 -202 53 -300 62 -127 11 -481
12 -579 0 -33 -3 -51 -2 -47 4 3 5 -14 12 -39 15 -31 5 -73 -1 -142 -19 -54
-14 -138 -28 -188 -31 -75 -5 -93 -10 -114 -30 -14 -12 -29 -23 -32 -23 -3 0
-22 -14 -40 -30 -56 -50 -67 -50 -262 4 -32 9 -69 16 -83 16 -14 0 -34 5 -44
10 -32 17 -289 25 -348 10 -29 -6 -52 -16 -52 -20 0 -4 -10 -10 -22 -13 -92
-23 -196 -59 -250 -88 -10 -5 -26 -9 -36 -9 -11 0 -38 -13 -60 -30 -35 -25
-53 -31 -117 -34 -42 -3 -92 -10 -110 -16 -28 -9 -46 -8 -87 3 -29 9 -84 20
-123 26 -38 6 -86 15 -105 21 -37 11 -290 2 -290 -10 0 -8 -70 -15 -250 -26
-143 -9 -153 -8 -225 21 -67 26 -110 32 -120 15 -3 -6 -15 -10 -25 -10 -10 0
-20 -6 -23 -12 -2 -9 -36 -13 -118 -14 -144 -1 -139 -1 -139 -22 0 -15 -14
-20 -72 -30 -40 -6 -97 -9 -127 -7 -30 3 -59 1 -65 -3 -35 -27 -155 -35 -191
-13 -12 7 -45 11 -100 11 -22 1 -42 4 -45 8 -12 16 -49 31 -52 21 -6 -17 -68
2 -68 21 0 12 -10 19 -32 23 -18 2 -34 1 -36 -4 -6 -15 -24 -10 -44 14 -11 12
-27 23 -36 24 -9 0 -44 11 -76 22 -49 17 -74 20 -141 16 -66 -4 -85 -2 -95 10
-7 9 -21 13 -31 10 -27 -9 -234 -9 -248 -1 -6 4 -33 3 -59 -3 -141 -31 -212
-43 -254 -42 -29 1 -48 -3 -48 -9 0 -6 -4 -9 -9 -5 -5 3 -12 1 -16 -5 -7 -11
-92 -14 -97 -2 -5 12 -104 62 -123 62 -11 0 -15 5 -11 15 3 9 0 15 -8 15 -8 0
-17 7 -20 16 -3 8 -10 12 -16 9 -6 -3 -13 1 -16 9 -3 9 -10 13 -15 10 -5 -3
-9 0 -9 5 0 6 -9 11 -20 11 -11 0 -20 3 -20 8 0 4 -27 18 -61 31 l-61 23 -48
-26 c-26 -14 -57 -26 -69 -26 -11 0 -21 -4 -21 -8 0 -4 -32 -22 -70 -41 -39
-18 -78 -40 -86 -49 -11 -10 -39 -17 -83 -19 -36 -1 -78 -5 -92 -7 -36 -7 -69
3 -69 20 0 8 -12 19 -27 24 -16 6 -38 16 -50 22 -31 16 -268 4 -363 -18 -43
-9 -82 -25 -91 -35 -18 -21 -49 -26 -49 -8 0 7 -8 9 -22 4 -32 -10 -67 -13
-192 -20 -59 -3 -112 -8 -117 -11 -5 -3 -76 -7 -157 -10 -173 -5 -202 -10
-221 -37 -12 -17 -21 -19 -70 -14 -31 3 -57 11 -59 17 -2 5 -12 10 -23 10 -10
0 -19 5 -19 11 0 6 -6 9 -12 6 -7 -2 -17 2 -23 10 -5 7 -20 15 -33 18 -12 2
-29 11 -38 19 -8 9 -22 16 -30 16 -8 0 -12 4 -9 10 3 5 2 10 -4 10 -15 0 -163
73 -184 90 -10 8 -20 14 -23 12 -6 -4 -64 29 -82 46 -8 7 -35 23 -61 37 -25
13 -56 33 -68 44 -12 12 -25 21 -29 21 -3 0 -25 12 -48 28 -22 15 -61 36 -86
46 -25 10 -59 25 -77 32 -17 8 -38 14 -46 14 -9 0 -18 4 -21 9 -3 4 -46 14
-95 20 l-89 12 -108 -42 c-60 -23 -119 -46 -131 -51 -11 -6 -26 -7 -32 -4 -6
4 -11 0 -11 -8 0 -23 -24 -20 -67 10 -39 26 -43 27 -240 13 -13 0 -20 -6 -16
-12 4 -6 0 -8 -10 -4 -9 3 -17 3 -19 -1 -5 -13 -114 -62 -135 -62 -11 0 -23
-3 -26 -7 -8 -8 -164 -63 -197 -70 -14 -2 -32 -7 -40 -10 -8 -4 -20 -5 -26 -5
-13 3 -199 -92 -232 -118 -13 -11 -34 -20 -46 -20 -30 0 -97 -25 -106 -39 -4
-7 -11 -13 -16 -13 -5 0 -28 -11 -52 -25 -23 -14 -57 -29 -75 -34 -18 -4 -51
-14 -75 -21 -36 -10 -47 -10 -75 4 -17 9 -52 24 -77 33 -25 9 -50 21 -56 26
-6 5 -34 13 -63 19 -54 10 -63 9 -200 -30 -69 -19 -108 -19 -122 2 -3 4 -37
17 -75 28 -75 22 -268 29 -279 10 -8 -13 -45 -13 -45 0 0 6 -13 10 -29 10 -18
0 -41 10 -57 25 -15 14 -29 23 -32 20 -6 -5 -85 36 -90 48 -2 4 -9 7 -16 7
-18 0 -135 59 -173 86 -17 13 -39 24 -47 24 -9 0 -16 3 -16 8 0 4 -51 7 -113
7 -61 -1 -114 2 -117 6 -3 4 -30 10 -60 13 -73 7 -121 15 -145 26 -11 5 -37
11 -57 15 -21 3 -38 9 -38 13 0 4 -15 8 -32 9 -18 2 -67 6 -108 9 -41 3 -79
10 -85 15 -13 13 -102 11 -110 -2 -4 -6 -22 -9 -41 -7 -18 1 -39 -3 -46 -10
-6 -6 -18 -12 -25 -12 -7 0 -28 -9 -48 -20 -20 -11 -42 -20 -49 -20 -8 0 -16
-5 -18 -11 -5 -16 -130 -17 -136 -1 -2 6 -9 12 -17 12 -7 0 -30 7 -51 17 -22
9 -48 17 -58 18 -11 1 -22 7 -24 13 -2 7 -15 12 -28 12 -16 0 -23 4 -18 11 4
8 -1 9 -15 4 -14 -4 -31 -1 -46 9 -13 9 -33 16 -44 16 -11 0 -23 5 -26 10 -3
5 -21 10 -39 10 -17 0 -36 4 -41 9 -18 16 -79 30 -155 36 -135 10 -683 12
-770 2 -69 -7 -234 -15 -357 -17 -13 0 -23 -5 -23 -11 0 -5 -4 -8 -9 -5 -5 4
-29 -2 -53 -12 -67 -29 -110 -34 -155 -18 -40 14 -178 19 -198 7 -5 -3 -17 -6
-25 -8 -8 -1 -16 -6 -17 -10 -2 -4 -38 -7 -80 -7 -82 2 -101 -4 -142 -43 -14
-13 -44 -32 -66 -43 -22 -11 -35 -20 -30 -20 13 -1 -127 -70 -141 -70 -6 0
-17 -6 -23 -14 -11 -13 -66 -31 -85 -27 -5 1 -12 -2 -15 -8 -10 -16 -224 -85
-233 -75 -2 1 -36 5 -76 8 -56 5 -80 2 -104 -10 -23 -12 -42 -14 -77 -8 -25 5
-53 9 -61 9 -8 1 -32 7 -52 14 -29 9 -46 10 -72 1 -37 -12 -109 -1 -155 25
-14 8 -57 21 -96 30 -38 10 -85 23 -104 31 -37 15 -87 19 -95 6 -2 -4 -24 -9
-47 -11 -23 -1 -58 -9 -77 -17 -19 -8 -37 -12 -39 -10 -3 2 -18 0 -34 -4 -18
-5 -29 -5 -29 1 0 6 -9 7 -21 4 -13 -5 -19 -3 -15 3 3 5 -1 13 -10 16 -26 10
-134 7 -134 -4 0 -5 -7 -7 -15 -4 -8 3 -29 -1 -46 -10 -40 -20 -49 -20 -49 -1
0 8 -6 15 -14 15 -7 0 -25 9 -40 21 -19 15 -30 18 -39 10 -14 -11 -108 -23
-170 -21 -22 0 -45 -4 -53 -11 -11 -9 -26 -8 -67 5 -113 35 -344 14 -399 -38
-16 -15 -24 -16 -44 -7 -14 6 -33 11 -44 11 -10 0 -20 5 -22 11 -6 19 -91 23
-124 6 -16 -8 -45 -18 -64 -22 -19 -4 -51 -19 -70 -33 -51 -39 -142 -80 -193
-87 -56 -9 -107 2 -107 21 0 8 -21 24 -47 36 -52 23 -123 20 -149 -7 -12 -11
-28 -14 -70 -9 -30 4 -59 2 -66 -3 -21 -17 -124 -10 -145 9 -21 19 -113 33
-113 17 0 -5 -14 -8 -32 -7 -17 1 -33 -2 -35 -7 -2 -6 -70 -10 -169 -10 -91 0
-168 -3 -170 -7 -3 -5 -14 -8 -25 -8 -10 0 -19 -4 -19 -9 0 -5 -17 -7 -37 -5
-63 6 -78 5 -81 -6 -5 -15 -52 -12 -52 3 0 17 -132 77 -170 77 -10 0 -23 6
-27 13 -10 15 -80 40 -92 33 -5 -4 -36 -9 -68 -12 -32 -4 -63 -10 -69 -15 -6
-5 -66 -22 -135 -39 -125 -31 -163 -45 -187 -67 -7 -7 -20 -13 -28 -13 -7 0
-19 -9 -26 -20 -10 -16 -24 -20 -68 -20 -31 0 -60 4 -66 10 -5 5 -103 12 -224
14 -129 3 -227 9 -245 16 -24 9 -92 17 -180 20 -5 1 -66 -2 -135 -6 -110 -6
-134 -4 -202 15 -137 37 -374 35 -415 -5 -6 -6 -42 -24 -80 -40 -37 -15 -70
-31 -73 -34 -13 -14 -82 -40 -144 -54 -39 -9 -72 -20 -75 -25 -13 -21 -92 -43
-133 -38 -24 3 -90 7 -148 9 -71 2 -116 9 -140 20 -19 9 -50 22 -67 29 -18 8
-33 17 -33 21 0 17 -118 8 -157 -11 -76 -39 -130 -61 -144 -61 -20 0 -107 -34
-159 -63 -55 -31 -130 -48 -234 -53 -43 -2 -94 -9 -112 -16 -25 -9 -36 -9 -47
0 -23 20 -99 18 -142 -2 -22 -11 -73 -22 -115 -27 -81 -8 -139 -25 -155 -45
-10 -12 -221 -35 -330 -36 -96 0 -320 20 -367 33 -38 10 -53 10 -86 0 -27 -9
-66 -11 -128 -7 -101 8 -116 8 -274 0 -63 -3 -119 -9 -124 -15 -25 -24 -99 -9
-202 41 -57 28 -104 55 -104 60 0 6 -8 10 -19 10 -10 0 -23 6 -29 13 -6 7 -39
26 -74 41 -35 16 -97 46 -140 67 -50 26 -90 39 -116 39 -34 0 -108 -28 -184
-70 -29 -16 -66 -11 -116 14 -46 23 -102 26 -102 5 0 -5 -9 -9 -19 -9 -11 0
-22 -4 -26 -9 -3 -6 -129 -9 -303 -7 -255 2 -307 5 -365 21 -63 17 -70 17
-102 2 -28 -14 -52 -16 -124 -10 -85 6 -181 -9 -181 -28 0 -14 -105 -20 -150
-9 -25 6 -63 12 -85 14 -93 7 -163 20 -204 38 -30 13 -80 20 -165 25 -66 3
-126 9 -131 14 -19 14 -190 26 -280 18 -49 -4 -96 -8 -103 -8 -7 -1 -11 -4 -9
-8 3 -5 -36 -9 -86 -10 -399 -7 -508 -14 -534 -35 -8 -6 -24 -6 -45 1 -19 6
-92 10 -168 9 -125 -2 -139 -1 -193 23 -43 19 -73 25 -113 24 -38 -2 -54 1
-54 10 0 14 -83 27 -88 14 -4 -10 -111 19 -148 40 -40 24 -99 32 -224 32 -100
0 -145 10 -245 54 -53 24 -154 55 -177 55 -13 1 -41 8 -63 16 -75 29 -150 46
-205 46 -34 0 -68 7 -92 19 -20 10 -48 19 -61 19 -12 0 -27 4 -33 9 -5 4 -33
16 -61 27 -29 10 -53 22 -53 26 0 4 -6 8 -12 8 -7 1 -31 9 -53 20 -22 11 -43
19 -47 20 -4 0 -31 11 -60 24 -100 44 -224 82 -318 97 -41 6 -205 15 -365 19
-280 8 -294 9 -408 39 -69 18 -142 31 -178 31 -67 0 -150 -18 -161 -34 -5 -7
-75 -11 -210 -11 -147 -1 -225 -5 -283 -17 -44 -9 -132 -22 -195 -28 -63 -6
-135 -16 -160 -20 -25 -5 -103 -14 -175 -21 -71 -6 -134 -15 -139 -20 -6 -5
-24 -9 -41 -9 -16 0 -62 -7 -100 -15 -39 -9 -117 -22 -175 -30 -58 -8 -116
-17 -130 -20 -14 -3 -63 -10 -110 -15 -119 -14 -226 -39 -287 -66 -28 -13 -57
-24 -62 -24 -6 0 -11 -4 -11 -8 0 -5 -20 -17 -45 -28 -25 -10 -45 -21 -45 -25
0 -4 -10 -11 -22 -15 -38 -11 -128 -57 -128 -64 0 -4 -20 -13 -44 -20 -35 -10
-55 -10 -95 0 -28 7 -54 16 -57 21 -3 5 -47 9 -97 10 -51 1 -119 4 -152 8 -66
7 -178 -4 -208 -21 -13 -7 -17 -7 -13 0 8 13 -29 10 -67 -6 -45 -19 -166 -35
-210 -28 -27 5 -43 3 -48 -5 -5 -9 -14 -9 -38 1 -17 7 -31 16 -31 21 0 5 -7 9
-15 9 -9 0 -26 6 -38 14 -14 9 -69 16 -147 21 -125 6 -234 25 -253 44 -6 6
-20 5 -39 -1 -22 -8 -36 -7 -53 2 -13 7 -34 10 -47 7 -22 -6 -98 10 -108 23
-3 4 -26 10 -52 13 -39 5 -48 4 -48 -8 0 -9 -10 -15 -25 -15 -14 0 -25 -4 -25
-8 0 -13 -83 -32 -96 -21 -13 11 -68 2 -105 -17 -18 -9 -48 -11 -96 -7 -58 5
-85 1 -164 -22 -52 -15 -96 -31 -99 -34 -3 -4 -27 -8 -53 -9 -27 -1 -55 -8
-63 -17 -17 -17 -75 -20 -90 -5 -32 32 -496 -60 -507 -100 -6 -23 -99 -30
-201 -17 -49 6 -77 5 -95 -3 -14 -7 -60 -14 -101 -17 -62 -4 -89 0 -160 22
-198 62 -303 86 -355 80 -31 -3 -68 0 -97 9 -27 8 -48 12 -48 9 0 -3 -6 0 -14
6 -8 7 -39 13 -70 14 -31 1 -56 7 -56 12 0 11 -80 33 -150 41 -25 3 -56 7 -70
8 -14 2 -47 9 -73 17 -38 11 -52 11 -67 1 -29 -18 -90 -16 -90 3 0 12 -13 15
-55 15 -44 0 -55 -3 -55 -16 0 -13 -6 -15 -27 -9 -16 3 -30 11 -31 16 -2 5 -9
6 -15 2 -36 -22 -263 -19 -271 4 -10 25 -86 13 -86 -13 0 -8 -7 -14 -15 -14
-8 0 -15 9 -15 19 0 23 -46 41 -106 41 -40 0 -92 16 -104 31 -9 13 -145 47
-210 54 -36 4 -95 19 -131 34 -50 21 -69 25 -82 17 -13 -8 -20 -8 -25 1 -11
17 -99 9 -159 -13 -26 -10 -50 -20 -53 -23 -13 -15 -81 -18 -137 -6 -24 5 -45
1 -76 -13 -37 -17 -57 -20 -133 -16 -49 3 -109 6 -134 7 -25 1 -51 8 -58 15
-7 6 -33 12 -56 12 -24 0 -88 11 -142 25 -102 26 -154 31 -154 16 0 -8 -89
-26 -118 -24 -7 1 -18 -10 -24 -23 -11 -24 -48 -34 -48 -13 0 5 -5 7 -10 4 -6
-4 -29 3 -50 14 -22 11 -40 17 -40 12 0 -4 -15 -9 -33 -10 -17 -1 -36 -2 -42
-3 -9 0 -102 6 -262 18 -48 3 -73 1 -73 -5 0 -6 -7 -11 -15 -11 -9 0 -28 -11
-43 -25 -29 -27 -107 -68 -129 -68 -7 0 -13 -3 -13 -7 0 -4 -19 -15 -42 -25
-24 -10 -52 -27 -64 -37 -23 -21 -190 -66 -276 -75 -51 -5 -168 10 -192 24
-17 11 -76 12 -76 2 0 -6 -4 -7 -10 -4 -5 3 -27 -3 -49 -15 -22 -11 -47 -20
-56 -20 -8 0 -15 -5 -15 -11 0 -6 -6 -9 -14 -6 -7 3 -17 2 -22 -3 -5 -4 -34
-10 -66 -12 -46 -2 -62 1 -88 20 -17 13 -36 21 -43 19 -7 -2 -27 2 -46 9 -18
8 -36 12 -40 9 -4 -2 -26 2 -48 10 -23 8 -53 16 -67 19 -14 3 -33 11 -41 19
-20 21 -228 32 -420 23 -82 -4 -244 -11 -360 -16 -219 -9 -374 -32 -388 -56
-4 -8 -17 -14 -28 -14 -11 0 -30 -5 -42 -11 -27 -15 -151 -23 -367 -22 -229 1
-316 1 -425 -2 -148 -2 -176 -5 -171 -13 2 -4 -93 -8 -212 -10 -802 -9 -973
-13 -1191 -23 -184 -8 -248 -15 -259 -25 -7 -8 -18 -12 -23 -9 -5 4 -21 0 -36
-8 -42 -22 -96 -37 -131 -37 -17 0 -34 -5 -37 -10 -3 -6 -26 -10 -51 -10 -30
0 -54 -7 -73 -21 -23 -17 -33 -19 -49 -10 -14 7 -23 8 -27 1 -3 -5 -26 -10
-51 -10 -25 0 -55 -5 -66 -11 -12 -6 -46 -11 -77 -11 -70 0 -91 -6 -91 -24 0
-9 -10 -14 -27 -14 -29 0 -83 -17 -120 -38 -12 -7 -33 -12 -48 -12 -14 0 -36
-6 -48 -14 -28 -18 -144 -56 -171 -56 -12 0 -34 -7 -50 -15 -16 -9 -45 -17
-65 -19 -36 -2 -108 -21 -146 -36 -11 -5 -31 -12 -45 -16 -13 -4 -30 -12 -37
-20 -17 -16 -102 -41 -176 -49 -32 -4 -64 -13 -70 -19 -32 -29 -69 -41 -157
-52 -52 -7 -113 -17 -135 -24 -22 -6 -51 -14 -65 -17 -14 -3 -27 -9 -30 -13
-3 -3 -25 -14 -50 -24 -79 -30 -100 -41 -100 -49 0 -5 -4 -6 -10 -2 -5 3 -17
2 -27 -3 -31 -16 -120 -42 -141 -42 -11 0 -22 -4 -24 -8 -2 -5 -48 -18 -103
-31 -55 -12 -109 -27 -120 -31 -61 -28 -165 -59 -285 -85 -102 -22 -170 -44
-202 -66 -14 -11 -39 -19 -55 -19 -15 0 -39 -9 -53 -20 -14 -11 -31 -20 -38
-20 -17 0 -141 -60 -148 -71 -8 -13 -41 -11 -48 4 -5 9 -7 9 -12 -1 -3 -6 -10
-10 -15 -6 -5 3 -9 0 -9 -5 0 -6 -10 -11 -22 -11 -12 0 -49 -13 -82 -29 -34
-16 -78 -35 -98 -42 -21 -7 -38 -17 -38 -21 0 -4 -11 -8 -24 -8 -13 0 -29 -6
-35 -14 -7 -8 -21 -12 -31 -9 -11 3 -20 0 -20 -6 0 -6 -9 -11 -20 -11 -11 0
-60 -15 -108 -34 -106 -42 -130 -48 -187 -50 -35 -1 -45 2 -49 17 -3 14 -10
17 -26 12 -13 -4 -32 -2 -44 3 -11 6 -57 18 -101 27 -44 10 -82 21 -85 26 -3
4 -17 10 -30 12 -54 11 -87 21 -123 39 -20 10 -37 16 -37 12 0 -3 -11 1 -25
10 -13 9 -31 16 -40 16 -8 0 -15 4 -15 8 0 4 -14 13 -30 19 -25 9 -30 16 -25
35 4 19 -1 26 -35 41 -26 12 -40 25 -40 38 0 10 -5 19 -11 19 -5 0 -7 4 -4 10
3 5 1 10 -4 10 -6 0 -11 6 -11 13 0 7 -11 24 -25 39 -14 15 -25 32 -25 37 0 6
-6 14 -14 18 -7 4 -18 18 -25 31 -6 12 -18 22 -26 22 -8 0 -12 6 -9 14 4 10
-2 16 -18 18 -13 2 -24 10 -24 18 -1 8 -2 21 -3 28 0 6 -8 12 -16 12 -8 0 -15
7 -15 15 0 8 -8 15 -19 15 -10 0 -28 13 -41 30 -12 16 -25 29 -29 28 -3 -1
-19 4 -36 11 -16 7 -49 18 -72 24 -24 6 -43 15 -43 20 0 5 -7 6 -16 3 -8 -3
-22 1 -30 9 -8 8 -34 20 -57 26 -23 6 -45 16 -49 22 -6 10 -14 13 -70 24 -15
3 -25 9 -22 14 3 5 -1 9 -10 9 -8 0 -28 11 -44 25 -17 14 -34 25 -39 24 -13
-3 -60 19 -68 31 -4 6 -15 8 -25 5 -10 -3 -21 -1 -25 5 -9 15 -102 13 -108 -3
-3 -9 -13 -8 -41 6 -31 15 -44 16 -79 6 -23 -6 -50 -15 -59 -20 -10 -5 -25 -9
-33 -9 -8 0 -15 -4 -15 -8 0 -4 -10 -8 -21 -9 -12 -1 -29 -8 -38 -16 -22 -19
-194 -58 -249 -58 -13 1 -20 -3 -17 -9 6 -9 -255 -5 -333 6 -25 4 -48 2 -56
-5 -7 -6 -16 -8 -20 -4 -3 4 -12 -2 -20 -12 -8 -11 -19 -16 -30 -12 -9 4 -28
2 -43 -4 -15 -5 -71 -10 -125 -10 -67 -1 -96 -4 -92 -11 4 -7 2 -8 -4 -4 -6 4
-38 2 -69 -3 -32 -6 -139 -22 -238 -36 -99 -14 -200 -31 -225 -37 -25 -6 -61
-13 -80 -16 -19 -2 -39 -8 -45 -12 -5 -4 -37 -8 -70 -9 -33 -1 -82 -8 -110
-16 -27 -7 -61 -13 -75 -12 -42 2 -182 -13 -194 -21 -6 -4 -121 -10 -256 -13
-305 -8 -355 -13 -490 -55 -25 -8 -72 -18 -105 -23 -33 -5 -78 -15 -100 -21
-61 -17 -215 -50 -258 -56 -20 -3 -83 -20 -140 -38 -56 -18 -124 -36 -152 -40
-27 -5 -56 -13 -63 -18 -6 -6 -26 -8 -42 -4 -21 4 -30 2 -30 -8 0 -17 -66 -28
-111 -19 -21 4 -30 3 -26 -4 16 -26 -136 -26 -173 0 -17 11 -37 14 -75 11 -33
-4 -55 -1 -60 5 -9 16 -68 14 -101 -3 -20 -11 -63 -15 -154 -15 -69 0 -133 -3
-142 -6 -17 -7 -93 37 -82 47 3 4 -4 9 -15 13 -12 3 -21 11 -21 16 0 6 -4 8
-9 4 -5 -3 -12 -1 -16 5 -3 5 -17 10 -30 10 -13 0 -31 7 -39 16 -9 8 -20 12
-26 9 -5 -3 -10 -1 -10 5 0 6 -4 9 -8 6 -5 -3 -25 4 -45 14 -21 11 -39 20 -42
19 -8 -1 -69 24 -75 31 -3 3 -39 14 -80 24 -41 11 -82 23 -90 27 -22 12 -133
43 -147 42 -7 0 -10 3 -7 8 3 5 -9 9 -25 9 -17 0 -31 5 -31 10 0 6 -8 10 -17
10 -24 0 -83 23 -83 32 0 4 -6 5 -13 2 -7 -2 -27 2 -43 11 -16 8 -37 15 -47
15 -10 0 -28 6 -40 14 -12 8 -40 16 -62 17 -22 2 -43 7 -46 13 -6 7 -53 19
-172 43 -15 3 -27 9 -27 14 0 5 -8 9 -18 9 -10 0 -22 4 -28 10 -7 7 -156 40
-226 50 -33 4 -133 3 -148 -2 -8 -2 -42 -10 -75 -17 -33 -8 -65 -20 -71 -29
-6 -8 -16 -12 -22 -8 -11 6 -70 -19 -82 -36 -3 -3 -22 -9 -43 -13 -20 -4 -37
-11 -37 -15 0 -4 -15 -13 -32 -20 -18 -8 -64 -28 -102 -47 -37 -18 -73 -33
-80 -33 -6 0 -33 -11 -60 -25 -27 -14 -58 -25 -68 -25 -10 0 -21 -6 -24 -14
-3 -8 -15 -14 -27 -14 -12 0 -58 -5 -102 -11 -187 -25 -268 -33 -371 -36 -60
-2 -122 -3 -138 -4 -15 0 -34 -5 -41 -11 -21 -18 -159 -48 -205 -45 -63 4
-162 21 -255 46 -140 36 -167 39 -295 35 -87 -4 -156 0 -220 10 -63 11 -122
14 -175 10 -235 -19 -248 -18 -370 4 -66 12 -132 23 -147 25 -15 2 -46 9 -70
16 -45 12 -273 -1 -388 -22 -73 -14 -150 -14 -235 -1 -118 18 -289 49 -305 55
-8 3 -53 8 -99 11 -46 4 -87 9 -92 11 -4 3 -39 7 -76 10 -37 2 -76 7 -85 10
-17 7 -18 -55 -18 -1219 l0 -1226 46155 0 46155 0 0 1135 c0 624 -4 1135 -9
1135 -4 0 -23 -5 -41 -12 -52 -18 -344 20 -420 54 -39 18 -588 27 -811 13
-100 -6 -142 -4 -206 9 -45 9 -131 23 -192 31 -102 13 -121 13 -258 -5 -81
-11 -174 -24 -207 -29 -72 -13 -173 -4 -180 15 -3 8 -20 14 -39 14 -18 0 -38
5 -45 12 -6 6 -50 13 -99 14 -156 6 -377 23 -423 34 -25 5 -92 12 -150 15 -58
3 -152 10 -210 16 -58 6 -127 11 -155 10 -42 -2 -142 17 -195 37 -8 3 -21 4
-29 3 -8 -1 -10 2 -5 10 5 9 2 10 -9 6 -9 -3 -49 7 -89 23 -40 17 -80 30 -88
30 -9 0 -24 6 -35 14 -11 7 -45 19 -75 26 -30 7 -66 18 -80 25 -14 7 -42 15
-62 19 -21 4 -38 11 -38 15 0 5 -21 11 -47 14 -27 3 -100 17 -163 32 -143 32
-262 59 -360 80 -41 9 -97 23 -125 31 -27 8 -77 19 -110 24 -33 5 -89 16 -125
23 -322 71 -416 80 -770 72 -280 -7 -299 -6 -370 13 -41 12 -97 22 -125 23
-27 2 -52 6 -55 10 -3 4 -210 10 -460 12 -453 5 -456 6 -592 34 -75 16 -140
32 -144 36 -13 12 -54 8 -79 -9 -21 -14 -32 -14 -97 -1 -101 19 -117 18 -218
-26 -87 -36 -125 -45 -191 -40 -43 2 -86 -1 -118 -11 -37 -11 -66 -12 -108 -6
-88 12 -131 5 -220 -36 -28 -13 -59 -24 -67 -24 -9 0 -16 -4 -16 -9 0 -18 -41
-23 -63 -8 -12 7 -38 16 -58 20 -42 6 -121 -2 -114 -13 16 -26 -286 -38 -331
-13 -12 7 -70 15 -130 18 -106 6 -184 21 -184 35 0 12 -58 19 -171 21 -95 2
-110 0 -137 -19 -16 -12 -43 -22 -59 -22 -58 0 -259 -41 -320 -66 -34 -13 -73
-25 -87 -26 -13 -1 -22 -6 -20 -10 3 -4 -2 -8 -10 -8 -9 0 -41 -12 -73 -26
-71 -32 -96 -32 -196 1 -43 14 -82 25 -88 25 -6 0 -17 7 -25 15 -9 8 -26 15
-40 15 -13 0 -32 4 -42 9 -46 23 -95 41 -112 41 -10 0 -22 5 -26 11 -3 6 -15
9 -25 6 -11 -3 -17 -1 -13 4 3 5 -6 9 -20 9 -14 0 -28 5 -31 11 -4 6 -14 8
-22 5 -8 -3 -11 -1 -8 4 4 6 -7 10 -24 10 -16 0 -33 5 -36 10 -4 6 -11 8 -16
4 -6 -3 -18 0 -27 8 -28 23 -69 41 -80 34 -6 -3 -12 -2 -14 4 -3 10 -150 58
-206 67 -18 3 -35 9 -38 14 -3 5 -14 9 -25 9 -11 0 -51 11 -90 25 -40 13 -76
22 -82 18 -5 -3 -7 -1 -4 4 4 6 -5 13 -21 16 -53 10 -166 47 -171 55 -3 5 -19
12 -36 16 -46 10 -85 27 -85 37 0 5 -8 9 -19 9 -10 0 -29 8 -42 18 -13 10 -44
26 -69 36 -25 10 -53 22 -62 27 -10 5 -25 9 -33 9 -8 0 -15 5 -15 10 0 6 -13
10 -30 10 -16 0 -30 5 -30 10 0 6 -14 10 -30 10 -17 0 -38 4 -48 9 -28 13
-118 41 -136 41 -9 0 -16 5 -16 10 0 6 -7 10 -15 10 -8 0 -15 5 -15 10 0 6 -8
10 -17 10 -24 0 -113 32 -113 41 0 4 -10 5 -22 1 -14 -3 -19 -2 -14 6 5 8 -3
12 -23 12 -16 0 -33 5 -36 10 -3 6 -17 10 -30 10 -13 0 -36 6 -52 14 -25 13
-75 27 -143 42 -14 3 -47 12 -75 19 -27 8 -81 17 -118 20 -70 5 -161 -11 -151
-26 3 -5 0 -10 -5 -10 -20 -3 -26 -4 -36 -11 -5 -3 -71 -6 -145 -6 -124 1
-140 -2 -192 -25 -31 -14 -59 -30 -62 -36 -4 -6 -34 -15 -67 -22 -37 -7 -73
-22 -96 -40 -20 -16 -42 -29 -49 -29 -8 0 -14 -4 -14 -10 0 -5 -10 -10 -22
-10 -13 0 -65 -18 -116 -40 -51 -22 -100 -40 -110 -40 -10 0 -27 -7 -38 -15
-12 -8 -61 -22 -110 -30 -49 -9 -100 -21 -114 -27 -14 -6 -57 -13 -96 -15 -56
-4 -74 -1 -87 11 -8 9 -24 16 -34 16 -10 0 -43 9 -73 21 -30 11 -70 24 -88 29
-18 4 -38 12 -45 18 -7 5 -29 12 -49 16 -21 4 -38 10 -38 15 0 4 -23 13 -50
20 -28 7 -57 20 -66 28 -8 8 -32 17 -54 20 -22 3 -40 9 -40 13 0 8 -91 30
-125 30 -12 0 -26 7 -29 16 -3 9 -16 14 -28 13 -22 -2 -38 2 -83 21 -72 31
-154 62 -174 66 -13 3 -36 11 -52 19 -15 8 -36 15 -46 15 -10 0 -31 7 -47 15
-15 8 -34 15 -41 15 -7 0 -15 4 -17 8 -4 10 -208 63 -235 61 -10 -1 -26 -3
-35 -6z"/>
</g>
</svg>
