<?xml version="1.0" standalone="no"?>
<!DOCTYPE svg PUBLIC "-//W3C//DTD SVG 20010904//EN"
 "http://www.w3.org/TR/2001/REC-SVG-20010904/DTD/svg10.dtd">
<svg version="1.0" xmlns="http://www.w3.org/2000/svg"
 width="1600.000000pt" height="3200.000000pt" viewBox="0 0 1600.000000 3200.000000"
 preserveAspectRatio="xMidYMid meet">
<metadata>
Created by potrace 1.15, written by Peter Selinger 2001-2017
</metadata>
<g transform="translate(0.000000,3200.000000) scale(0.100000,-0.100000)"
fill="#000000" stroke="none">
<path d="M1593 16350 c-7 -19 -23 -80 -38 -135 -14 -55 -28 -108 -31 -117 -15
-52 -89 18 -81 76 4 26 3 27 -9 11 -7 -10 -21 -37 -31 -61 -28 -69 -49 -56
-77 48 -12 45 -15 48 -15 21 -2 -57 -44 -133 -76 -133 -6 0 -19 26 -29 57 -16
49 -20 54 -28 37 -18 -33 -61 -74 -78 -74 -13 0 -19 18 -29 83 -14 92 -31 187
-34 187 -1 0 -2 -42 -2 -93 0 -87 -2 -97 -30 -143 -39 -63 -61 -68 -81 -17 -8
21 -22 56 -32 78 l-17 39 -6 -51 c-7 -53 -40 -113 -63 -113 -16 0 -49 36 -69
75 -10 17 -16 23 -17 14 0 -24 -49 -69 -75 -69 -14 0 -33 16 -55 47 l-34 47
-7 -34 c-8 -38 -49 -80 -79 -80 -10 0 -32 16 -49 35 -25 29 -31 45 -31 81 0
25 5 55 11 67 6 12 -7 3 -31 -20 -48 -50 -60 -53 -61 -15 -1 15 -5 4 -9 -25
-8 -53 -42 -113 -64 -113 -16 0 -49 36 -69 75 -10 17 -16 23 -17 14 0 -24 -49
-69 -75 -69 -14 0 -31 14 -48 37 l-27 38 0 -8078 0 -8077 8000 0 8000 0 0
8077 0 8078 -27 -38 c-17 -23 -34 -37 -48 -37 -26 0 -75 45 -75 69 -1 9 -7 3
-17 -14 -20 -39 -53 -75 -69 -75 -22 0 -56 60 -64 113 -4 29 -8 40 -9 25 -1
-38 -13 -35 -61 15 -24 23 -37 32 -31 20 6 -12 11 -42 11 -67 0 -36 -6 -52
-31 -81 -17 -19 -39 -35 -49 -35 -30 0 -71 42 -79 80 l-7 34 -34 -47 c-22 -31
-41 -47 -55 -47 -26 0 -75 45 -75 69 -1 9 -7 3 -17 -14 -20 -39 -53 -75 -69
-75 -23 0 -56 60 -63 113 l-6 51 -17 -39 c-10 -22 -24 -57 -32 -78 -20 -51
-42 -46 -81 17 -28 46 -30 56 -30 143 0 51 -1 93 -2 93 -3 0 -20 -95 -34 -187
-10 -65 -16 -83 -29 -83 -17 0 -60 41 -78 74 -8 17 -12 12 -28 -37 -10 -31
-23 -57 -29 -57 -32 0 -74 76 -76 133 0 27 -3 24 -15 -21 -28 -104 -49 -117
-77 -48 -10 24 -24 51 -31 61 -12 16 -13 15 -9 -11 8 -58 -66 -128 -81 -76 -3
9 -19 71 -37 137 -37 142 -48 167 -49 109 0 -49 -32 -180 -55 -223 -8 -17 -22
-31 -30 -31 -18 0 -55 57 -55 83 0 32 -15 17 -39 -39 -13 -31 -30 -58 -38 -61
-24 -9 -45 18 -41 55 4 28 2 31 -7 18 -16 -21 -23 -20 -46 7 -18 22 -18 22
-19 1 0 -33 -36 -71 -84 -89 -46 -18 -66 -14 -66 11 0 28 -42 104 -81 146 -38
41 -39 41 -24 11 28 -58 15 -123 -34 -167 -39 -35 -111 8 -111 67 l-1 32 -42
-48 c-23 -26 -49 -47 -58 -47 -22 0 -69 38 -69 56 0 25 -14 14 -42 -31 -15
-25 -34 -45 -42 -45 -32 0 -86 109 -72 146 3 8 2 14 -2 14 -4 0 -20 -34 -36
-75 -16 -41 -35 -75 -42 -75 -20 0 -64 64 -80 117 -14 45 -13 102 3 158 4 14
2 17 -6 10 -6 -6 -15 -45 -21 -85 -12 -100 -26 -169 -34 -178 -12 -11 -61 25
-78 58 l-17 32 -14 -34 c-8 -19 -18 -44 -21 -56 -17 -54 -74 7 -85 91 l-7 52
-8 -35 c-14 -58 -37 -110 -50 -110 -6 0 -26 28 -43 63 l-32 62 0 -41 c-1 -29
-8 -47 -24 -62 -43 -41 -50 -32 -91 129 -39 148 -55 173 -56 84 -1 -80 -49
-225 -76 -225 -18 0 -54 49 -54 75 0 44 -14 33 -46 -37 -46 -100 -74 -103 -74
-8 l0 45 -30 -63 c-37 -79 -59 -81 -105 -8 -28 46 -30 56 -30 143 0 51 -1 93
-2 93 -3 0 -20 -95 -34 -187 -10 -65 -16 -83 -29 -83 -17 0 -60 41 -78 74 -8
17 -12 12 -28 -37 -10 -31 -23 -57 -29 -57 -32 0 -74 76 -76 133 0 27 -3 24
-15 -21 -28 -104 -49 -117 -77 -48 -10 24 -24 51 -31 61 -12 16 -13 15 -9 -11
8 -58 -66 -128 -81 -76 -3 9 -19 71 -37 137 -37 142 -48 167 -49 109 0 -49
-32 -180 -55 -223 -8 -17 -22 -31 -30 -31 -18 0 -55 57 -55 83 0 32 -15 17
-39 -39 -13 -31 -30 -58 -38 -61 -24 -9 -45 18 -41 55 4 28 2 31 -7 18 -16
-21 -23 -20 -46 7 -18 22 -18 22 -19 1 0 -33 -36 -71 -84 -89 -46 -18 -66 -14
-66 11 0 28 -42 104 -81 146 -38 41 -39 41 -24 11 28 -58 15 -123 -34 -167
-39 -35 -111 8 -111 67 l-1 32 -42 -48 c-23 -26 -49 -47 -58 -47 -22 0 -69 38
-69 56 0 25 -14 14 -42 -31 -15 -25 -34 -45 -42 -45 -32 0 -86 109 -72 146 3
8 2 14 -2 14 -4 0 -20 -34 -36 -75 -16 -41 -35 -75 -42 -75 -20 0 -64 64 -80
117 -14 45 -13 102 3 158 4 14 2 17 -6 10 -6 -6 -15 -45 -21 -85 -12 -100 -26
-169 -34 -178 -12 -11 -61 25 -78 58 l-17 32 -14 -34 c-8 -19 -18 -44 -21 -56
-17 -54 -74 7 -85 91 l-7 52 -8 -35 c-14 -58 -37 -110 -50 -110 -6 0 -26 28
-43 63 l-32 62 0 -41 c-1 -29 -8 -47 -24 -62 -43 -41 -50 -32 -91 129 -39 148
-55 173 -56 84 -1 -80 -49 -225 -76 -225 -18 0 -54 49 -54 75 0 44 -14 33 -46
-37 -45 -100 -74 -103 -74 -9 l0 44 -36 -72 -35 -71 -1479 0 -1479 0 -35 71
-36 72 0 -44 c0 -94 -29 -91 -74 9 -32 70 -46 81 -46 37 0 -26 -36 -75 -54
-75 -27 0 -75 145 -76 225 -1 89 -17 64 -56 -84 -42 -162 -50 -173 -92 -128
-15 15 -22 37 -23 63 l0 39 -32 -62 c-17 -35 -37 -63 -43 -63 -13 0 -36 52
-50 110 l-8 35 -7 -52 c-11 -84 -68 -145 -85 -91 -3 12 -13 37 -21 56 l-14 34
-17 -32 c-17 -33 -66 -69 -78 -58 -8 9 -22 78 -34 178 -6 40 -15 79 -21 85 -8
7 -10 4 -6 -10 16 -56 17 -113 3 -158 -16 -53 -60 -117 -80 -117 -7 0 -26 34
-42 75 -16 41 -32 75 -36 75 -4 0 -5 -6 -2 -14 14 -37 -40 -146 -72 -146 -8 0
-27 20 -42 45 -28 45 -42 56 -42 31 0 -18 -47 -56 -69 -56 -9 0 -35 21 -58 47
l-42 48 -1 -32 c0 -59 -72 -102 -111 -67 -49 44 -62 109 -34 167 15 30 14 30
-24 -11 -39 -42 -81 -118 -81 -146 0 -25 -20 -29 -66 -11 -48 18 -84 56 -84
89 -1 21 -1 21 -19 -1 -23 -27 -30 -28 -46 -7 -9 13 -11 10 -7 -18 4 -37 -17
-64 -41 -55 -8 3 -25 30 -38 61 -24 56 -39 71 -39 39 0 -26 -37 -83 -55 -83
-8 0 -22 14 -30 31 -23 43 -55 174 -55 223 -1 58 -12 33 -49 -109 -18 -66 -34
-128 -37 -137 -15 -52 -89 18 -81 76 4 26 3 27 -9 11 -7 -10 -21 -37 -31 -61
-28 -69 -49 -56 -77 48 -12 45 -15 48 -15 21 -2 -57 -44 -133 -76 -133 -6 0
-19 26 -29 57 -16 49 -20 54 -28 37 -18 -33 -61 -74 -78 -74 -13 0 -19 18 -29
83 -14 92 -31 187 -34 187 -1 0 -2 -42 -2 -93 0 -87 -2 -97 -30 -143 -46 -73
-68 -71 -105 8 l-30 63 0 -45 c0 -95 -28 -92 -74 8 -32 70 -46 81 -46 37 0
-26 -36 -75 -54 -75 -27 0 -75 145 -76 225 -1 89 -17 64 -56 -84 -42 -162 -50
-173 -92 -128 -15 15 -22 37 -23 63 l0 39 -32 -62 c-17 -35 -37 -63 -43 -63
-13 0 -36 52 -50 110 l-8 35 -7 -52 c-11 -84 -68 -145 -85 -91 -3 12 -13 37
-21 56 l-14 34 -17 -32 c-17 -33 -66 -69 -78 -58 -8 9 -22 78 -34 178 -6 40
-15 79 -21 85 -8 7 -10 4 -6 -10 16 -56 17 -113 3 -158 -16 -53 -60 -117 -80
-117 -7 0 -26 34 -42 75 -16 41 -32 75 -36 75 -4 0 -5 -6 -2 -14 14 -37 -40
-146 -72 -146 -8 0 -27 20 -42 45 -28 45 -42 56 -42 31 0 -18 -47 -56 -69 -56
-9 0 -35 21 -58 47 l-42 48 -1 -32 c0 -59 -72 -102 -111 -67 -49 44 -62 109
-34 167 15 30 14 30 -24 -11 -39 -42 -81 -118 -81 -146 0 -25 -20 -29 -66 -11
-48 18 -84 56 -84 89 -1 21 -1 21 -19 -1 -23 -27 -30 -28 -46 -7 -9 13 -11 10
-7 -18 4 -37 -17 -64 -41 -55 -8 3 -25 30 -38 61 -24 56 -39 71 -39 39 0 -26
-37 -83 -55 -83 -28 0 -70 116 -83 232 l-8 63 -11 -35z"/>
</g>
</svg>
